# xmcd
#
# Track frame offsets:
#	150
#	13016
#	22323
#	40567
#	62504
#	80035
#	100206
#	117798
#	140008
#	163806
#	184149
#	204158
#
# Disc length: 2937 seconds
#
# Revision: 1
# Processed by: cddbd v1.5.1PL0 Copyright (c) Steve Scherf et al.
# Submitted via: CDex 1.50Beta5
#
DISCID=9f0b770c
DTITLE=NaoN - も〜っと! ベアナックル
DYEAR=1900
DGENRE=Soundtrack
TTITLE0=Opening
TTITLE1=Player Select
TTITLE2=Eye of the Bare Knuckle
TTITLE3=GEKISAI
TTITLE4=Broken Elevetor
TTITLE5=Bullworker
TTITLE6=Y.K.B.K
TTITLE7=Ruins
TTITLE8=GEKISAI
TTITLE9=Bad Ending
TTITLE10=Last Boss
TTITLE11=Good-Bye, Adam
EXTD=
EXTT0=
EXTT1=
EXTT2=
EXTT3=
EXTT4=
EXTT5=
EXTT6=
EXTT7=
EXTT8=
EXTT9=
EXTT10=
EXTT11=
PLAYORDER=
